# xmcd
#
# Track frame offsets:
#	150
#	11679
#	28088
#	45458
#	83353
#	111877
#	148813
#	175037
#	226952
#	243452
#
# Disc length: 3711 seconds
#
# Revision: 2
# Processed by: cddbd v1.5.1PL2 Copyright (c) Steve Scherf et al.
# Submitted via: EasyCDDAExtractor 8.0.2.1
#
DISCID=750e7d0a
DTITLE=Uriah Heep - Bospop Festival Weert 02-07-05
DYEAR=2005
DGENRE=Hard Rock
TTITLE0=Intro
TTITLE1=Blood Red Roses
TTITLE2=Cry Freedom
TTITLE3=So Tired
TTITLE4=Between Two Worlds
TTITLE5=Sunrise
TTITLE6=Look At Yourself
TTITLE7=July Morning
TTITLE8=Easy Livin'
TTITLE9=Lady In Black
EXTD=
EXTT0=
EXTT1=
EXTT2=
EXTT3=
EXTT4=
EXTT5=
EXTT6=
EXTT7=
EXTT8=
EXTT9=
PLAYORDER=
